<svg width="18" height="12" viewBox="0 0 18 12" fill="none" xmlns="http://www.w3.org/2000/svg">
<path d="M6 11C6 10.4477 6.44772 10 7 10H17C17.5523 10 18 10.4477 18 11C18 11.5523 17.5523 12 17 12H7C6.44772 12 6 11.5523 6 11Z" fill="#C2D2F4"/>
<path d="M6 11C6 10.4477 6.44772 10 7 10H17C17.5523 10 18 10.4477 18 11C18 11.5523 17.5523 12 17 12H7C6.44772 12 6 11.5523 6 11Z" fill="#B7C6E7"/>
<path d="M0 6C0 5.44772 0.447715 5 1 5H17C17.5523 5 18 5.44772 18 6C18 6.55228 17.5523 7 17 7H1C0.447716 7 0 6.55228 0 6Z" fill="#C2D2F4"/>
<path d="M0 6C0 5.44772 0.447715 5 1 5H17C17.5523 5 18 5.44772 18 6C18 6.55228 17.5523 7 17 7H1C0.447716 7 0 6.55228 0 6Z" fill="#B7C6E7"/>
<path d="M0 1C0 0.447715 0.447715 0 1 0H17C17.5523 0 18 0.447715 18 1C18 1.55228 17.5523 2 17 2H1C0.447716 2 0 1.55228 0 1Z" fill="#C2D2F4"/>
<path d="M0 1C0 0.447715 0.447715 0 1 0H17C17.5523 0 18 0.447715 18 1C18 1.55228 17.5523 2 17 2H1C0.447716 2 0 1.55228 0 1Z" fill="#B7C6E7"/>
</svg>
