<svg width="12" height="14" viewBox="0 0 12 14" fill="none" xmlns="http://www.w3.org/2000/svg">
<path d="M5.99998 6.3999C6.59339 6.3999 7.17347 6.22392 7.66685 5.8942C8.16023 5.56449 8.54475 5.09586 8.77177 4.54758C8.99878 3.99931 9.0581 3.39603 8.94221 2.81404C8.82633 2.23206 8.54045 1.69751 8.12073 1.27802C7.70101 0.858524 7.16631 0.572928 6.58427 0.457353C6.00222 0.341778 5.39897 0.401416 4.85082 0.628725C4.30267 0.856033 3.83424 1.2408 3.50479 1.73436C3.17534 2.22792 2.99966 2.80809 2.99998 3.4015C3.00125 4.19662 3.31778 4.95877 3.88016 5.52085C4.44254 6.08293 5.20486 6.39906 5.99998 6.3999Z" fill="#C2D2F4"/>
<path d="M5.99998 6.3999C6.59339 6.3999 7.17347 6.22392 7.66685 5.8942C8.16023 5.56449 8.54475 5.09586 8.77177 4.54758C8.99878 3.99931 9.0581 3.39603 8.94221 2.81404C8.82633 2.23206 8.54045 1.69751 8.12073 1.27802C7.70101 0.858524 7.16631 0.572928 6.58427 0.457353C6.00222 0.341778 5.39897 0.401416 4.85082 0.628725C4.30267 0.856033 3.83424 1.2408 3.50479 1.73436C3.17534 2.22792 2.99966 2.80809 2.99998 3.4015C3.00125 4.19662 3.31778 4.95877 3.88016 5.52085C4.44254 6.08293 5.20486 6.39906 5.99998 6.3999Z" fill="#B7C6E7"/>
<path d="M2.01637 13.5999H9.98358C10.3592 13.5999 10.7195 13.4593 10.9851 13.209C11.2508 12.9587 11.4 12.6192 11.4 12.2652V11.9599C11.3639 10.6328 10.7792 9.37159 9.7704 8.44503C8.76163 7.51847 7.40867 6.9999 5.99998 6.9999C4.59129 6.9999 3.23832 7.51847 2.22956 8.44503C1.22079 9.37159 0.63604 10.6328 0.599976 11.9599V12.2652C0.599976 12.6192 0.749202 12.9587 1.01483 13.209C1.14635 13.3329 1.30249 13.4312 1.47434 13.4983C1.64618 13.5654 1.83037 13.5999 2.01637 13.5999Z" fill="#C2D2F4"/>
<path d="M2.01637 13.5999H9.98358C10.3592 13.5999 10.7195 13.4593 10.9851 13.209C11.2508 12.9587 11.4 12.6192 11.4 12.2652V11.9599C11.3639 10.6328 10.7792 9.37159 9.7704 8.44503C8.76163 7.51847 7.40867 6.9999 5.99998 6.9999C4.59129 6.9999 3.23832 7.51847 2.22956 8.44503C1.22079 9.37159 0.63604 10.6328 0.599976 11.9599V12.2652C0.599976 12.6192 0.749202 12.9587 1.01483 13.209C1.14635 13.3329 1.30249 13.4312 1.47434 13.4983C1.64618 13.5654 1.83037 13.5999 2.01637 13.5999Z" fill="#B7C6E7"/>
</svg>
