<svg width="1160" height="2" viewBox="0 0 1160 2" fill="none" xmlns="http://www.w3.org/2000/svg">
<g opacity="0.72">
<path d="M1159.5 0C1159.78 0 1160 0.447715 1160 1C1160 1.55228 1159.78 2 1159.5 2H615V0H1159.5Z" fill="#C2D2F4"/>
<path d="M1159.5 0C1159.78 0 1160 0.447715 1160 1C1160 1.55228 1159.78 2 1159.5 2H615V0H1159.5Z" fill="#B7C6E7"/>
<path d="M545 0V2H0.5C0.223877 2 0 1.55228 0 1C0 0.447715 0.223877 0 0.5 0H545Z" fill="#C2D2F4"/>
<path d="M545 0V2H0.5C0.223877 2 0 1.55228 0 1C0 0.447715 0.223877 0 0.5 0H545Z" fill="#B7C6E7"/>
</g>
</svg>
