<svg width="1366" height="28" viewBox="0 0 1366 28" fill="none" xmlns="http://www.w3.org/2000/svg">
<g opacity="0.5">
<path d="M-37 12H1403V14H-37V12Z" fill="#C2D2F4"/>
<path d="M-37 12H1403V14H-37V12Z" fill="#B7C6E7"/>
</g>
<path d="M633 12H733V14H633V12Z" fill="white"/>
<path d="M683 0L667 4.5V23.6923L683 28L699 23.5V4.5L683 0ZM669 22V7.5L682 11V25.5L669 22ZM669 5.5L674.5 4L688.5 7.5L683 9L669 5.5ZM697 22L684 25.5V11L689 9.5V15L692 14V8.5L697 7V22ZM692 6.5L678 3L683 1.5L696 5.5L692 6.5Z" fill="#C2D2F4"/>
<path d="M683 0L667 4.5V23.6923L683 28L699 23.5V4.5L683 0ZM669 22V7.5L682 11V25.5L669 22ZM669 5.5L674.5 4L688.5 7.5L683 9L669 5.5ZM697 22L684 25.5V11L689 9.5V15L692 14V8.5L697 7V22ZM692 6.5L678 3L683 1.5L696 5.5L692 6.5Z" fill="#B7C6E7"/>
</svg>
