<svg width="16" height="16" viewBox="0 0 16 16" fill="none" xmlns="http://www.w3.org/2000/svg">
<path fill-rule="evenodd" clip-rule="evenodd" d="M13.0909 6.54545C13.0909 7.98177 12.6283 9.31003 11.8439 10.3894L16 14.5455L14.5455 16L10.3894 11.8439C9.31004 12.6283 7.98178 13.0909 6.54545 13.0909C2.9305 13.0909 0 10.1604 0 6.54545C0 2.9305 2.9305 0 6.54545 0C10.1604 0 13.0909 2.9305 13.0909 6.54545ZM6.5 11C9 11 11 9.09091 11 6.54545C11 4 9 2 6.54545 2C4.09091 2 2 4 2 6.54545C2 9.09091 4 11 6.5 11Z" fill="#CCCCCC"/>
</svg>
